<svg xmlns="http://www.w3.org/2000/svg" viewBox="0 0 1110.7 262.0" width="1111" height="262" role="img" aria-label="Málaga Live logo"><title>Málaga Live</title><rect width="1110.7" height="262.0" fill="#0B5E8A"/><g transform="translate(14.00,4.00) scale(0.19336)"><rect x="0" y="0" width="1024" height="1024" rx="191" ry="191" fill="#FFFFFF"/><path d="M 401 308 L 401 715 L 723 511 Z" fill="#E8662A"/></g><g transform="translate(246.00,178.00) scale(0.08523,-0.08523)" fill="#FFFFFF"><path transform="translate(0.0,0)" d="M78 0V1760H614L762 687L909 1760H1450V0H1128V1268L926 0H610L396 1268V0Z"/><path transform="translate(1538.2,0)" d="M30 0 200 1760H797L964 0H631L606 284H394L372 0ZM419 565H579L502 1460H486ZM258 1813V2036L733 2254V1907Z"/><path transform="translate(2542.5,0)" d="M78 0V1760H430V300H792V0Z"/><path transform="translate(3366.7,0)" d="M30 0 200 1760H797L964 0H631L606 284H394L372 0ZM419 565H579L502 1460H486Z"/><path transform="translate(4371.0,0)" d="M441 -16Q64 -16 64 524V1283Q64 1776 496 1776Q674 1776 769.0 1704.5Q864 1633 900.0 1496.0Q936 1359 936 1162H592V1318Q592 1375 576.5 1413.5Q561 1452 512 1452Q451 1452 431.5 1411.0Q412 1370 412 1321V468Q412 397 430.5 352.5Q449 308 503 308Q559 308 577.5 352.5Q596 397 596 470V721H502V1025H932V0H791L731 148Q639 -16 441 -16Z"/><path transform="translate(5374.2,0)" d="M30 0 200 1760H797L964 0H631L606 284H394L372 0ZM419 565H579L502 1460H486Z"/></g><g transform="translate(830.53,178.00) scale(0.08523,-0.08523)" fill="#E8662A"><path transform="translate(0.0,0)" d="M78 0V1760H430V300H792V0Z"/><path transform="translate(824.2,0)" d="M62 0V1760H402V0Z"/><path transform="translate(1298.5,0)" d="M240 0 23 1761H358L487 563L602 1761H937L720 0Z"/><path transform="translate(2269.7,0)" d="M78 0V1760H782V1420H436V1077H768V746H436V343H805V0Z"/></g><g transform="translate(14.00,242.00) scale(0.01610,-0.01610)" fill="#EAF1F6"><path transform="translate(0.0,0)" d="M81 1294V1490H1240V1294H775V0H548V1294Z"/><path transform="translate(1444.9,0)" d="M158 0V1490H386V860H1124V1490H1351V0H1124V664H386V0Z"/><path transform="translate(3076.8,0)" d="M158 0V1490H1111V1294H386V851H1059V657H386V196H1116V0Z"/><path transform="translate(5084.5,0)" d="M158 0V1490H696Q866 1490 981.0 1428.0Q1096 1366 1154.5 1257.5Q1213 1149 1213 1011Q1213 872 1154.0 763.5Q1095 655 979.5 592.5Q864 530 693 530H314V724H675Q782 724 850.5 760.5Q919 797 952.0 862.0Q985 927 985 1011Q985 1095 952.0 1159.0Q919 1223 850.0 1259.0Q781 1295 674 1295H386V0Z"/><path transform="translate(6511.4,0)" d="M750 -23Q571 -23 437.5 45.5Q304 114 230.5 235.0Q157 356 157 512V1490H384V530Q384 429 428.5 351.0Q473 273 555.0 228.0Q637 183 750 183Q863 183 945.0 228.0Q1027 273 1071.0 351.0Q1115 429 1115 530V1490H1342V512Q1342 356 1268.5 235.0Q1195 114 1062.0 45.5Q929 -23 750 -23Z"/><path transform="translate(8133.3,0)" d="M158 0V1490H386V196H1066V0Z"/><path transform="translate(9404.2,0)" d="M662 -24Q493 -24 368.5 30.5Q244 85 174.5 187.0Q105 289 99 429H326Q332 345 377.0 288.0Q422 231 496.0 202.0Q570 173 661 173Q757 173 831.5 203.0Q906 233 948.5 287.0Q991 341 991 413Q991 477 955.5 518.5Q920 560 856.5 588.5Q793 617 708 639L535 684Q343 735 240.5 831.0Q138 927 138 1081Q138 1210 206.5 1307.0Q275 1404 394.5 1457.5Q514 1511 666 1511Q821 1511 938.0 1456.5Q1055 1402 1121.0 1306.5Q1187 1211 1191 1086H970Q960 1194 876.0 1254.0Q792 1314 662 1314Q572 1314 505.0 1285.5Q438 1257 401.0 1207.0Q364 1157 364 1093Q364 1026 404.0 983.0Q444 940 506.5 914.0Q569 888 636 870L784 832Q864 812 941.0 780.0Q1018 748 1080.0 699.0Q1142 650 1178.5 580.0Q1215 510 1215 414Q1215 286 1149.5 187.0Q1084 88 960.0 32.0Q836 -24 662 -24Z"/><path transform="translate(10841.0,0)" d="M158 0V1490H1111V1294H386V851H1059V657H386V196H1116V0Z"/><path transform="translate(12848.8,0)" d="M782 -21Q587 -21 434.5 72.0Q282 165 194.0 336.5Q106 508 106 744Q106 981 194.0 1153.0Q282 1325 434.5 1418.0Q587 1511 782 1511Q976 1511 1128.5 1418.0Q1281 1325 1368.5 1153.0Q1456 981 1456 744Q1456 508 1368.5 336.5Q1281 165 1128.5 72.0Q976 -21 782 -21ZM782 186Q909 186 1010.5 250.0Q1112 314 1171.0 439.0Q1230 564 1230 744Q1230 926 1171.0 1051.0Q1112 1176 1010.5 1240.0Q909 1304 782 1304Q654 1304 552.0 1239.5Q450 1175 390.5 1050.0Q331 925 331 744Q331 564 390.5 439.5Q450 315 552.0 250.5Q654 186 782 186Z"/><path transform="translate(14533.7,0)" d="M158 0V1490H1095V1294H386V822H1030V628H386V0Z"/><path transform="translate(16507.4,0)" d="M158 0V1490H386V196H1066V0Z"/><path transform="translate(17778.3,0)" d="M386 1490V0H158V1490Z"/><path transform="translate(18445.2,0)" d="M583 0 43 1490H288L579 659Q611 563 652.5 425.0Q694 287 748 99H698Q751 290 792.0 426.5Q833 563 864 659L1147 1490H1391L859 0Z"/><path transform="translate(20002.1,0)" d="M158 0V1490H1111V1294H386V851H1059V657H386V196H1116V0Z"/><path transform="translate(22009.8,0)" d="M158 0V1490H489L817 631Q830 594 848.0 536.5Q866 479 885.0 413.0Q904 347 921.5 284.0Q939 221 951 172H902Q915 219 932.0 281.5Q949 344 968.0 410.0Q987 476 1005.0 534.5Q1023 593 1037 631L1359 1490H1691V0H1466V804Q1466 851 1467.0 914.0Q1468 977 1470.0 1047.0Q1472 1117 1473.5 1188.5Q1475 1260 1476 1326H1496Q1474 1252 1450.5 1176.5Q1427 1101 1404.5 1030.5Q1382 960 1362.0 901.5Q1342 843 1328 804L1021 0H828L518 804Q503 842 483.5 899.5Q464 957 441.5 1027.0Q419 1097 394.5 1173.5Q370 1250 346 1326H370Q371 1264 372.5 1194.0Q374 1124 375.5 1053.0Q377 982 378.5 917.5Q380 853 380 804V0Z"/><path transform="translate(23982.7,0)" d="M750 -23Q571 -23 437.5 45.5Q304 114 230.5 235.0Q157 356 157 512V1490H384V530Q384 429 428.5 351.0Q473 273 555.0 228.0Q637 183 750 183Q863 183 945.0 228.0Q1027 273 1071.0 351.0Q1115 429 1115 530V1490H1342V512Q1342 356 1268.5 235.0Q1195 114 1062.0 45.5Q929 -23 750 -23Z"/><path transform="translate(25604.6,0)" d="M662 -24Q493 -24 368.5 30.5Q244 85 174.5 187.0Q105 289 99 429H326Q332 345 377.0 288.0Q422 231 496.0 202.0Q570 173 661 173Q757 173 831.5 203.0Q906 233 948.5 287.0Q991 341 991 413Q991 477 955.5 518.5Q920 560 856.5 588.5Q793 617 708 639L535 684Q343 735 240.5 831.0Q138 927 138 1081Q138 1210 206.5 1307.0Q275 1404 394.5 1457.5Q514 1511 666 1511Q821 1511 938.0 1456.5Q1055 1402 1121.0 1306.5Q1187 1211 1191 1086H970Q960 1194 876.0 1254.0Q792 1314 662 1314Q572 1314 505.0 1285.5Q438 1257 401.0 1207.0Q364 1157 364 1093Q364 1026 404.0 983.0Q444 940 506.5 914.0Q569 888 636 870L784 832Q864 812 941.0 780.0Q1018 748 1080.0 699.0Q1142 650 1178.5 580.0Q1215 510 1215 414Q1215 286 1149.5 187.0Q1084 88 960.0 32.0Q836 -24 662 -24Z"/><path transform="translate(27041.5,0)" d="M386 1490V0H158V1490Z"/><path transform="translate(27708.4,0)" d="M782 -21Q586 -21 433.0 72.0Q280 165 193.0 336.5Q106 508 106 744Q106 981 193.5 1153.0Q281 1325 434.0 1418.0Q587 1511 782 1511Q901 1511 1005.0 1476.5Q1109 1442 1191.0 1376.5Q1273 1311 1327.0 1217.0Q1381 1123 1400 1004H1171Q1156 1077 1121.0 1132.5Q1086 1188 1034.5 1226.5Q983 1265 919.5 1284.5Q856 1304 784 1304Q652 1304 549.5 1238.0Q447 1172 389.0 1047.0Q331 922 331 744Q331 566 389.5 441.0Q448 316 550.5 251.0Q653 186 784 186Q855 186 918.5 205.5Q982 225 1033.5 263.0Q1085 301 1120.5 357.0Q1156 413 1171 485H1400Q1383 373 1330.0 280.5Q1277 188 1196.0 120.0Q1115 52 1010.0 15.5Q905 -21 782 -21Z"/><path transform="translate(29985.1,0)" d="M294 562Q233 562 190.0 604.5Q147 647 147 708Q147 769 190.0 811.5Q233 854 294 854Q355 854 397.5 811.5Q440 769 440 708Q440 647 397.5 604.5Q355 562 294 562Z"/><path transform="translate(31350.9,0)" d="M158 0V1490H489L817 631Q830 594 848.0 536.5Q866 479 885.0 413.0Q904 347 921.5 284.0Q939 221 951 172H902Q915 219 932.0 281.5Q949 344 968.0 410.0Q987 476 1005.0 534.5Q1023 593 1037 631L1359 1490H1691V0H1466V804Q1466 851 1467.0 914.0Q1468 977 1470.0 1047.0Q1472 1117 1473.5 1188.5Q1475 1260 1476 1326H1496Q1474 1252 1450.5 1176.5Q1427 1101 1404.5 1030.5Q1382 960 1362.0 901.5Q1342 843 1328 804L1021 0H828L518 804Q503 842 483.5 899.5Q464 957 441.5 1027.0Q419 1097 394.5 1173.5Q370 1250 346 1326H370Q371 1264 372.5 1194.0Q374 1124 375.5 1053.0Q377 982 378.5 917.5Q380 853 380 804V0Z"/><path transform="translate(33323.8,0)" d="M43 0 576 1490H853L1392 0H1147L857 831Q823 934 782.5 1068.5Q742 1203 688 1394H738Q685 1202 645.0 1066.0Q605 930 572 831L288 0ZM334 391V581H1102V391ZM629 1632 771 1933H997L796 1632Z"/><path transform="translate(34882.6,0)" d="M158 0V1490H386V196H1066V0Z"/><path transform="translate(36153.5,0)" d="M43 0 576 1490H853L1392 0H1147L857 831Q823 934 782.5 1068.5Q742 1203 688 1394H738Q685 1202 645.0 1066.0Q605 930 572 831L288 0ZM334 391V581H1102V391Z"/><path transform="translate(37712.4,0)" d="M787 -21Q584 -21 431.0 73.0Q278 167 192.0 339.0Q106 511 106 744Q106 980 193.0 1152.0Q280 1324 432.0 1417.5Q584 1511 778 1511Q899 1511 1004.0 1475.0Q1109 1439 1191.5 1373.0Q1274 1307 1328.0 1216.0Q1382 1125 1401 1015H1168Q1149 1081 1114.0 1134.5Q1079 1188 1029.5 1226.0Q980 1264 917.5 1284.0Q855 1304 781 1304Q652 1304 550.0 1238.5Q448 1173 389.5 1048.0Q331 923 331 745Q331 568 389.5 443.0Q448 318 551.0 252.0Q654 186 788 186Q907 186 998.0 235.0Q1089 284 1139.5 374.0Q1190 464 1190 585L1250 576H824V763H1412V592Q1412 406 1331.0 268.5Q1250 131 1109.0 55.0Q968 -21 787 -21Z"/><path transform="translate(39359.3,0)" d="M43 0 576 1490H853L1392 0H1147L857 831Q823 934 782.5 1068.5Q742 1203 688 1394H738Q685 1202 645.0 1066.0Q605 930 572 831L288 0ZM334 391V581H1102V391Z"/><path transform="translate(41574.0,0)" d="M782 -21Q586 -21 433.0 72.0Q280 165 193.0 336.5Q106 508 106 744Q106 981 193.5 1153.0Q281 1325 434.0 1418.0Q587 1511 782 1511Q901 1511 1005.0 1476.5Q1109 1442 1191.0 1376.5Q1273 1311 1327.0 1217.0Q1381 1123 1400 1004H1171Q1156 1077 1121.0 1132.5Q1086 1188 1034.5 1226.5Q983 1265 919.5 1284.5Q856 1304 784 1304Q652 1304 549.5 1238.0Q447 1172 389.0 1047.0Q331 922 331 744Q331 566 389.5 441.0Q448 316 550.5 251.0Q653 186 784 186Q855 186 918.5 205.5Q982 225 1033.5 263.0Q1085 301 1120.5 357.0Q1156 413 1171 485H1400Q1383 373 1330.0 280.5Q1277 188 1196.0 120.0Q1115 52 1010.0 15.5Q905 -21 782 -21Z"/><path transform="translate(43194.9,0)" d="M386 1490V0H158V1490Z"/><path transform="translate(43861.8,0)" d="M81 1294V1490H1240V1294H775V0H548V1294Z"/><path transform="translate(45306.7,0)" d="M593 0V594L43 1490H307L588 1016Q633 940 669.5 869.0Q706 798 744 700H671Q709 799 745.5 871.0Q782 943 825 1016L1103 1490H1365L819 594V0Z"/><path transform="translate(47493.4,0)" d="M573 -21Q425 -21 316.5 33.5Q208 88 149.0 181.5Q90 275 90 392Q90 483 126.0 551.5Q162 620 230.0 680.5Q298 741 391 809L635 982Q666 1004 694.5 1032.0Q723 1060 741.0 1094.5Q759 1129 759 1172Q759 1236 714.5 1279.5Q670 1323 594 1323Q543 1323 503.0 1301.5Q463 1280 441.0 1242.5Q419 1205 419 1154Q419 1103 442.5 1055.0Q466 1007 510.0 952.0Q554 897 614 826L1306 0H1057L485 672Q405 767 344.0 843.5Q283 920 248.0 994.5Q213 1069 213 1155Q213 1257 260.0 1336.0Q307 1415 392.0 1460.0Q477 1505 591 1505Q704 1505 787.0 1461.0Q870 1417 915.0 1342.5Q960 1268 960 1176Q960 1109 935.5 1050.0Q911 991 867.0 940.5Q823 890 762 845L462 624Q381 564 345.0 510.5Q309 457 309 392Q309 326 342.5 274.0Q376 222 435.0 192.5Q494 163 570 163Q656 163 736.5 200.5Q817 238 880.5 306.5Q944 375 982.0 469.5Q1020 564 1020 678H1217Q1217 543 1187.0 445.5Q1157 348 1111.0 281.5Q1065 215 1019 175L970 128Q895 54 787.5 16.5Q680 -21 573 -21Z"/><path transform="translate(49595.2,0)" d="M782 -21Q586 -21 433.0 72.0Q280 165 193.0 336.5Q106 508 106 744Q106 981 193.5 1153.0Q281 1325 434.0 1418.0Q587 1511 782 1511Q901 1511 1005.0 1476.5Q1109 1442 1191.0 1376.5Q1273 1311 1327.0 1217.0Q1381 1123 1400 1004H1171Q1156 1077 1121.0 1132.5Q1086 1188 1034.5 1226.5Q983 1265 919.5 1284.5Q856 1304 784 1304Q652 1304 549.5 1238.0Q447 1172 389.0 1047.0Q331 922 331 744Q331 566 389.5 441.0Q448 316 550.5 251.0Q653 186 784 186Q855 186 918.5 205.5Q982 225 1033.5 263.0Q1085 301 1120.5 357.0Q1156 413 1171 485H1400Q1383 373 1330.0 280.5Q1277 188 1196.0 120.0Q1115 52 1010.0 15.5Q905 -21 782 -21Z"/><path transform="translate(51216.1,0)" d="M782 -21Q587 -21 434.5 72.0Q282 165 194.0 336.5Q106 508 106 744Q106 981 194.0 1153.0Q282 1325 434.5 1418.0Q587 1511 782 1511Q976 1511 1128.5 1418.0Q1281 1325 1368.5 1153.0Q1456 981 1456 744Q1456 508 1368.5 336.5Q1281 165 1128.5 72.0Q976 -21 782 -21ZM782 186Q909 186 1010.5 250.0Q1112 314 1171.0 439.0Q1230 564 1230 744Q1230 926 1171.0 1051.0Q1112 1176 1010.5 1240.0Q909 1304 782 1304Q654 1304 552.0 1239.5Q450 1175 390.5 1050.0Q331 925 331 744Q331 564 390.5 439.5Q450 315 552.0 250.5Q654 186 782 186Z"/><path transform="translate(52901.0,0)" d="M662 -24Q493 -24 368.5 30.5Q244 85 174.5 187.0Q105 289 99 429H326Q332 345 377.0 288.0Q422 231 496.0 202.0Q570 173 661 173Q757 173 831.5 203.0Q906 233 948.5 287.0Q991 341 991 413Q991 477 955.5 518.5Q920 560 856.5 588.5Q793 617 708 639L535 684Q343 735 240.5 831.0Q138 927 138 1081Q138 1210 206.5 1307.0Q275 1404 394.5 1457.5Q514 1511 666 1511Q821 1511 938.0 1456.5Q1055 1402 1121.0 1306.5Q1187 1211 1191 1086H970Q960 1194 876.0 1254.0Q792 1314 662 1314Q572 1314 505.0 1285.5Q438 1257 401.0 1207.0Q364 1157 364 1093Q364 1026 404.0 983.0Q444 940 506.5 914.0Q569 888 636 870L784 832Q864 812 941.0 780.0Q1018 748 1080.0 699.0Q1142 650 1178.5 580.0Q1215 510 1215 414Q1215 286 1149.5 187.0Q1084 88 960.0 32.0Q836 -24 662 -24Z"/><path transform="translate(54337.8,0)" d="M81 1294V1490H1240V1294H775V0H548V1294Z"/><path transform="translate(55782.7,0)" d="M43 0 576 1490H853L1392 0H1147L857 831Q823 934 782.5 1068.5Q742 1203 688 1394H738Q685 1202 645.0 1066.0Q605 930 572 831L288 0ZM334 391V581H1102V391Z"/><path transform="translate(57997.5,0)" d="M642 0H274V198H630Q800 198 912.5 262.0Q1025 326 1080.5 449.0Q1136 572 1136 747Q1136 922 1080.5 1043.5Q1025 1165 915.5 1228.5Q806 1292 643 1292H267V1490H657Q877 1490 1034.0 1401.0Q1191 1312 1275.5 1145.0Q1360 978 1360 747Q1360 515 1275.0 347.5Q1190 180 1030.0 90.0Q870 0 642 0ZM386 1490V0H158V1490Z"/><path transform="translate(59585.4,0)" d="M158 0V1490H1111V1294H386V851H1059V657H386V196H1116V0Z"/><path transform="translate(60937.2,0)" d="M158 0V1490H386V196H1066V0Z"/><path transform="translate(62864.0,0)" d="M662 -24Q493 -24 368.5 30.5Q244 85 174.5 187.0Q105 289 99 429H326Q332 345 377.0 288.0Q422 231 496.0 202.0Q570 173 661 173Q757 173 831.5 203.0Q906 233 948.5 287.0Q991 341 991 413Q991 477 955.5 518.5Q920 560 856.5 588.5Q793 617 708 639L535 684Q343 735 240.5 831.0Q138 927 138 1081Q138 1210 206.5 1307.0Q275 1404 394.5 1457.5Q514 1511 666 1511Q821 1511 938.0 1456.5Q1055 1402 1121.0 1306.5Q1187 1211 1191 1086H970Q960 1194 876.0 1254.0Q792 1314 662 1314Q572 1314 505.0 1285.5Q438 1257 401.0 1207.0Q364 1157 364 1093Q364 1026 404.0 983.0Q444 940 506.5 914.0Q569 888 636 870L784 832Q864 812 941.0 780.0Q1018 748 1080.0 699.0Q1142 650 1178.5 580.0Q1215 510 1215 414Q1215 286 1149.5 187.0Q1084 88 960.0 32.0Q836 -24 662 -24Z"/><path transform="translate(64300.9,0)" d="M782 -21Q587 -21 434.5 72.0Q282 165 194.0 336.5Q106 508 106 744Q106 981 194.0 1153.0Q282 1325 434.5 1418.0Q587 1511 782 1511Q976 1511 1128.5 1418.0Q1281 1325 1368.5 1153.0Q1456 981 1456 744Q1456 508 1368.5 336.5Q1281 165 1128.5 72.0Q976 -21 782 -21ZM782 186Q909 186 1010.5 250.0Q1112 314 1171.0 439.0Q1230 564 1230 744Q1230 926 1171.0 1051.0Q1112 1176 1010.5 1240.0Q909 1304 782 1304Q654 1304 552.0 1239.5Q450 1175 390.5 1050.0Q331 925 331 744Q331 564 390.5 439.5Q450 315 552.0 250.5Q654 186 782 186Z"/><path transform="translate(65985.8,0)" d="M158 0V1490H386V196H1066V0Z"/></g></svg>